<svg xmlns="http://www.w3.org/2000/svg" xmlns:xlink="http://www.w3.org/1999/xlink" viewBox="0 0 834.36 838.16"><defs><style>.cls-1{fill:#fff;}.cls-1,.cls-2,.cls-3,.cls-5,.cls-6,.cls-7,.cls-8,.cls-9{stroke:#424242;stroke-linejoin:round;}.cls-1,.cls-2,.cls-3,.cls-4,.cls-5,.cls-9{stroke-linecap:round;}.cls-1,.cls-2,.cls-3,.cls-4,.cls-5,.cls-6,.cls-7,.cls-8,.cls-9{stroke-width:4px;}.cls-2{fill:#424242;}.cls-3,.cls-4,.cls-6{fill:none;}.cls-4{stroke:#fefdfd;stroke-miterlimit:10;}.cls-5{fill:url(#Degradado_sin_nombre_27);}.cls-7{fill:url(#Degradado_sin_nombre_21);}.cls-8{fill:url(#Degradado_sin_nombre_24);}.cls-9{fill:url(#Degradado_sin_nombre_16);}</style><radialGradient id="Degradado_sin_nombre_27" cx="482.73" cy="418.13" r="60.8" gradientUnits="userSpaceOnUse"><stop offset="0" stop-color="#fff"/><stop offset="1" stop-color="#424242"/></radialGradient><linearGradient id="Degradado_sin_nombre_21" x1="186.31" y1="691.75" x2="186.31" y2="254.72" gradientUnits="userSpaceOnUse"><stop offset="0" stop-color="#fff"/><stop offset="0.66" stop-color="#7f7f7f"/><stop offset="1" stop-color="#424242"/></linearGradient><linearGradient id="Degradado_sin_nombre_24" x1="132.51" y1="762.05" x2="132.51" y2="691.75" gradientUnits="userSpaceOnUse"><stop offset="0" stop-color="#fff"/><stop offset="0.01" stop-color="#fbfbfb"/><stop offset="0.09" stop-color="#d0d0d0"/><stop offset="0.17" stop-color="#a9a9a9"/><stop offset="0.27" stop-color="#898989"/><stop offset="0.37" stop-color="#6f6f6f"/><stop offset="0.47" stop-color="#5b5b5b"/><stop offset="0.6" stop-color="#4d4d4d"/><stop offset="0.75" stop-color="#444"/><stop offset="1" stop-color="#424242"/></linearGradient><linearGradient id="Degradado_sin_nombre_16" x1="190.11" y1="167.31" x2="744.74" y2="167.31" xlink:href="#Degradado_sin_nombre_27"/></defs><title>logo_fr_2</title><g id="Capa_2" data-name="Capa 2"><g id="Layer_3" data-name="Layer 3"><polygon class="cls-1" points="2.95 762.05 72.31 836.15 85.49 762.05 2.95 762.05"/><polygon class="cls-2" points="72.31 836.15 323.12 836.15 250.92 763.95 87.51 763.95 72.31 836.15"/><polygon class="cls-1" points="157.81 2 762.05 2 708.85 241.42 355.42 241.42 249.02 762.05 2 762.05 157.81 2"/><polyline class="cls-2" points="354.69 244.98 247.12 760.15 323.12 836.15 425.73 315.52 779.15 315.52 706.95 243.32 354.69 244.98"/><polygon class="cls-1" points="763.95 3.9 832.36 68.5 748.75 68.5 763.95 3.9"/><polygon class="cls-2" points="748.75 68.5 706.95 243.32 779.15 315.52 832.36 68.5 748.75 68.5"/><circle class="cls-2" cx="554.94" cy="490.33" r="102.61"/><line class="cls-3" x1="407.86" y1="488.26" x2="472.29" y2="551.13"/><line class="cls-3" x1="564.18" y1="355.73" x2="614.56" y2="406.85"/><circle class="cls-1" cx="482.73" cy="418.13" r="102.61"/><line class="cls-4" x1="247.12" y1="760.15" x2="323.12" y2="836.16"/><line class="cls-4" x1="706.95" y1="243.32" x2="779.15" y2="315.52"/><circle class="cls-5" cx="482.73" cy="418.13" r="60.8"/><circle class="cls-1" cx="481.78" cy="420.03" r="27.55"/><line class="cls-3" x1="224.31" y1="79.91" x2="159.71" y2="3.9"/><line class="cls-6" x1="357.32" y1="243.32" x2="288.92" y2="159.71"/><polygon class="cls-7" points="269.92 254.72 178.71 691.75 102.71 691.75 190.11 254.72 269.92 254.72"/><polygon class="cls-8" points="86.32 762.05 165.17 762.05 178.71 691.75 102.71 691.75 86.32 762.05"/><polyline class="cls-9" points="190.11 254.72 224.31 79.91 744.74 79.91 726.97 159.87 288.92 159.71 269.92 254.72 190.11 254.72"/></g></g></svg>