<svg xmlns="http://www.w3.org/2000/svg" viewBox="0 0 682.44 837.47"><defs><style>.cls-1{fill:#424242;}</style></defs><title>logo_fr</title><g id="Capa_2" data-name="Capa 2"><g id="Layer_3" data-name="Layer 3"><path class="cls-1" d="M0,0H498.49c225,23.17,264.73,427,0,448.64H378.85V254.88c.39-53,25.36-84.33,53.35-79.44,19.87,6.62,26.49,19.86,13.12,50.54C419,327.7,577.85,321.08,551.66,226c-6.91-24.06-40-57.16-81.08-65.13C412.34,149,366,162.2,325.68,192.75c0,0-59.82,39.88-66.46,152.87v99.7H113v19.94H259.22V837.47H0Z"/><path class="cls-1" d="M378.85,471.91V837.47H651.36V664.66S668,485.2,501.81,471.91Z"/></g></g></svg>